<?xml version="1.0" encoding="utf-8"?>
<!-- Generator: Adobe Illustrator 16.0.0, SVG Export Plug-In . SVG Version: 6.00 Build 0)  -->
<!DOCTYPE svg PUBLIC "-//W3C//DTD SVG 1.1//EN" "http://www.w3.org/Graphics/SVG/1.1/DTD/svg11.dtd">
<svg version="1.1" id="Layer_1" xmlns="http://www.w3.org/2000/svg" xmlns:xlink="http://www.w3.org/1999/xlink" x="0px" y="0px"
	 width="65.639px" height="25.352px" viewBox="0 0 65.639 25.352" enable-background="new 0 0 65.639 25.352" xml:space="preserve">
<g>
	<g>
		<polygon fill="#00334E" points="5.698,18.311 4.163,21.985 2.733,18.311 1.553,18.311 4.002,23.864 4.322,23.864 6.831,18.311 		
			"/>
		<path fill="#00334E" d="M9.656,18.205c-0.734,0-1.373,0.269-1.898,0.798c-0.525,0.529-0.792,1.234-0.792,2.092
			c0,0.873,0.242,1.559,0.718,2.041c0.476,0.482,1.135,0.727,1.961,0.727c0.84,0,1.487-0.162,1.928-0.482l-0.396-0.785
			c-0.328,0.265-0.777,0.399-1.336,0.399c-0.51,0-0.924-0.137-1.23-0.407c-0.309-0.272-0.479-0.657-0.505-1.142L8.098,21.32h4.069
			c0.058-0.272,0.087-0.479,0.087-0.617c0-0.724-0.238-1.328-0.708-1.794C11.076,18.441,10.439,18.205,9.656,18.205z M8.123,20.563
			l0.032-0.147c0.196-0.891,0.708-1.343,1.522-1.343c0.878,0,1.395,0.468,1.492,1.355l0.015,0.134H8.123z"/>
		<path fill="#00334E" d="M15.346,19.073c0.454,0,0.79,0.127,0.999,0.378c0.202,0.245,0.305,0.627,0.305,1.14v3.167h1.08v-3.368
			c0-0.689-0.185-1.232-0.55-1.613c-0.364-0.379-0.871-0.571-1.506-0.571c-0.66,0-1.164,0.2-1.498,0.595l-0.122,0.145l-0.29-0.633
			h-0.753v5.446h1.08v-4.03l0.024-0.033c0.134-0.177,0.322-0.327,0.557-0.444C14.908,19.132,15.135,19.073,15.346,19.073z"/>
		<path fill="#00334E" d="M23.577,23.763v-5.452h-1.08l-0.009,3.834c-0.094,0.229-0.283,0.43-0.561,0.599
			c-0.274,0.167-0.576,0.251-0.896,0.251c-0.5,0-1.097-0.211-1.097-1.215v-3.469h-1.08v3.571c0,1.333,0.605,1.982,1.85,1.982
			c0.26,0,0.55-0.055,0.864-0.164c0.312-0.108,0.558-0.238,0.732-0.386l0.198-0.169v0.618H23.577z"/>
		<path fill="#00334E" d="M27.021,18.205c-0.734,0-1.373,0.269-1.897,0.798c-0.525,0.529-0.792,1.234-0.792,2.092
			c0,0.873,0.242,1.559,0.717,2.041c0.476,0.482,1.136,0.727,1.961,0.727c0.84,0,1.487-0.162,1.928-0.482l-0.396-0.785
			c-0.329,0.265-0.777,0.399-1.336,0.399c-0.51,0-0.924-0.137-1.231-0.407c-0.309-0.272-0.479-0.657-0.505-1.142l-0.007-0.127h4.07
			c0.058-0.272,0.087-0.479,0.087-0.617c0-0.724-0.238-1.328-0.709-1.794S27.805,18.205,27.021,18.205z M25.488,20.563l0.033-0.147
			c0.195-0.891,0.708-1.343,1.521-1.343c0.879,0,1.395,0.468,1.492,1.355l0.015,0.134H25.488z"/>
		<path fill="#00334E" d="M36.055,16.925l0.303-0.781c-0.384-0.109-0.716-0.165-0.987-0.165c-0.575,0-1.03,0.197-1.392,0.603
			c-0.361,0.405-0.557,0.948-0.583,1.613l-0.005,0.115h-0.824v0.853h0.824v4.593h1.08v-4.593h1.151v-0.853h-1.163l-0.009-0.112
			c-0.004-0.048-0.005-0.098-0.005-0.147c0-0.342,0.097-0.635,0.288-0.873c0.198-0.245,0.443-0.369,0.73-0.369
			C35.609,16.811,35.804,16.848,36.055,16.925z"/>
		<g>
			<path fill="#00334E" d="M37.009,17.215c0.127,0.129,0.276,0.191,0.456,0.191c0.18,0,0.329-0.062,0.457-0.191
				c0.127-0.127,0.189-0.278,0.189-0.458c0-0.181-0.062-0.331-0.189-0.459c-0.128-0.127-0.277-0.19-0.457-0.19
				c-0.179,0-0.328,0.062-0.456,0.19c-0.127,0.128-0.189,0.278-0.189,0.459C36.819,16.937,36.882,17.087,37.009,17.215z"/>
			<polygon fill="#00334E" points="38,23.757 38,18.311 36.181,18.311 36.181,19.158 36.904,19.158 36.904,23.757 			"/>
		</g>
		<path fill="#00334E" d="M41.571,19.073c0.454,0,0.79,0.127,0.998,0.378c0.202,0.245,0.305,0.627,0.305,1.14v3.167h1.08v-3.368
			c0-0.689-0.185-1.232-0.549-1.613c-0.364-0.379-0.871-0.571-1.506-0.571c-0.661,0-1.164,0.2-1.498,0.595l-0.122,0.145l-0.29-0.633
			h-0.753v5.446h1.079v-4.03l0.025-0.033c0.134-0.177,0.321-0.327,0.557-0.444C41.132,19.132,41.359,19.073,41.571,19.073z"/>
		<path fill="#00334E" d="M49.797,23.757v-7.852l-1.08,0.261v2.378l-0.174-0.087c-0.333-0.168-0.709-0.253-1.118-0.253
			c-0.743,0-1.37,0.271-1.862,0.808c-0.496,0.54-0.747,1.25-0.747,2.114c0,0.864,0.217,1.544,0.647,2.022
			c0.427,0.474,1.023,0.715,1.772,0.715c0.264,0,0.522-0.043,0.769-0.129c0.24-0.083,0.41-0.178,0.504-0.282l0.209-0.231v0.536
			H49.797z M48.694,22.59c-0.071,0.097-0.206,0.186-0.414,0.271c-0.202,0.083-0.369,0.124-0.513,0.124
			c-1.208,0-1.821-0.638-1.821-1.896c0-0.633,0.155-1.129,0.458-1.474c0.307-0.35,0.748-0.527,1.309-0.527
			c0.333,0,0.655,0.123,0.957,0.366l0.045,0.036v3.067L48.694,22.59z"/>
		<path fill="#00334E" d="M53.136,18.205c-0.734,0-1.373,0.269-1.897,0.798c-0.525,0.529-0.792,1.234-0.792,2.092
			c0,0.873,0.241,1.559,0.717,2.041s1.136,0.727,1.961,0.727c0.84,0,1.488-0.162,1.928-0.482l-0.396-0.785
			c-0.328,0.265-0.777,0.399-1.337,0.399c-0.509,0-0.924-0.137-1.23-0.407c-0.309-0.272-0.478-0.657-0.505-1.142l-0.006-0.127h4.069
			c0.058-0.272,0.088-0.479,0.088-0.617c0-0.724-0.238-1.328-0.708-1.794C54.556,18.441,53.919,18.205,53.136,18.205z
			 M51.603,20.563l0.032-0.147c0.196-0.891,0.708-1.343,1.522-1.343c0.878,0,1.395,0.468,1.492,1.355l0.015,0.134H51.603z"/>
		<path fill="#00334E" d="M58.862,19.073c0.259,0,0.502,0.062,0.726,0.184l0.449-0.912c-0.214-0.093-0.508-0.14-0.874-0.14
			c-0.582,0-1.034,0.191-1.384,0.586l-0.21,0.237v-0.717h-1.08v5.446h1.08v-3.119c0-0.431,0.13-0.802,0.386-1.104
			C58.216,19.229,58.521,19.073,58.862,19.073z"/>
		<path fill="#00334E" d="M63.93,22.285c0-0.367-0.101-0.683-0.301-0.939c-0.204-0.262-0.547-0.49-1.021-0.677
			c-0.512-0.203-0.838-0.362-1-0.486c-0.182-0.14-0.274-0.305-0.274-0.489c0-0.307,0.142-0.673,0.812-0.673
			c0.466,0,0.852,0.1,1.147,0.297l0.287-0.775c-0.472-0.224-0.978-0.337-1.508-0.337c-0.552,0-1.009,0.131-1.36,0.388
			c-0.343,0.252-0.51,0.597-0.51,1.053c0,0.685,0.455,1.208,1.389,1.598c0.464,0.195,0.77,0.361,0.936,0.51
			c0.182,0.161,0.274,0.37,0.274,0.622c0,0.307-0.155,0.673-0.892,0.673c-0.47,0-0.903-0.137-1.287-0.406l-0.362,0.816
			c0.301,0.157,0.553,0.263,0.749,0.317c0.216,0.059,0.511,0.088,0.875,0.088c0.638,0,1.148-0.145,1.513-0.429
			C63.755,23.154,63.93,22.777,63.93,22.285z"/>
	</g>
	<path fill="#F05133" d="M18.135,4.19c-0.451-0.517-0.978-0.928-1.566-1.225c-0.586-0.294-1.229-0.444-1.909-0.444
		c-0.797,0-1.545,0.209-2.226,0.623c-0.683,0.415-1.258,0.986-1.707,1.696L10.562,5.1l-0.166-0.26
		C9.945,4.128,9.374,3.558,8.699,3.143C8.026,2.73,7.274,2.521,6.462,2.521c-0.666,0-1.305,0.15-1.898,0.445
		C3.969,3.262,3.442,3.673,3,4.188C2.556,4.705,2.202,5.315,1.948,6.002C1.693,6.687,1.564,7.439,1.564,8.236v5.741h1.622V8.236
		c0-0.522,0.085-1.019,0.254-1.478C3.609,6.3,3.845,5.893,4.143,5.547C4.44,5.2,4.791,4.924,5.185,4.728
		C5.581,4.53,6.011,4.429,6.462,4.429c0.451,0,0.885,0.101,1.288,0.298c0.402,0.196,0.757,0.472,1.055,0.82
		c0.297,0.346,0.533,0.754,0.701,1.211c0.169,0.459,0.254,0.956,0.254,1.478v5.741h1.622V8.236c0-0.522,0.085-1.02,0.254-1.478
		c0.168-0.458,0.404-0.865,0.701-1.211c0.298-0.347,0.648-0.623,1.042-0.819c0.396-0.198,0.826-0.299,1.278-0.299
		c0.451,0,0.884,0.101,1.288,0.298c0.402,0.196,0.757,0.472,1.055,0.82c0.297,0.346,0.533,0.753,0.701,1.211
		c0.169,0.459,0.254,0.956,0.254,1.478v5.741h1.622V8.236c0-0.796-0.128-1.548-0.383-2.234S18.585,4.707,18.135,4.19z"/>
	<path fill="#F05133" d="M28.952,11.959l-1.061-1.061l-0.52,0.52c-0.5,0.5-1.092,0.806-1.758,0.908
		c-0.169,0.025-0.339,0.039-0.503,0.039c-0.483,0-0.953-0.112-1.396-0.333l-0.28-0.14l0.221-0.222l5.297-5.297l-0.519-0.52
		c-0.458-0.458-0.982-0.806-1.557-1.035c-0.577-0.229-1.172-0.346-1.769-0.346c-0.596,0-1.191,0.116-1.769,0.346
		c-0.575,0.229-1.098,0.577-1.557,1.035c-0.458,0.458-0.802,0.978-1.022,1.544c-0.223,0.57-0.335,1.163-0.335,1.759
		c0,0.598,0.113,1.193,0.335,1.771c0.221,0.573,0.565,1.096,1.022,1.554c0.444,0.444,0.958,0.789,1.527,1.025
		c0.568,0.236,1.173,0.355,1.798,0.355s1.23-0.119,1.798-0.355c0.569-0.236,1.083-0.581,1.527-1.025L28.952,11.959z M23.373,9.828
		l-0.779,0.779l-0.222,0.222l-0.14-0.281c-0.22-0.438-0.331-0.908-0.331-1.394c0-0.876,0.317-1.638,0.942-2.264
		c0.501-0.501,1.093-0.803,1.761-0.897c0.159-0.022,0.317-0.034,0.472-0.034c0.493,0,0.972,0.114,1.424,0.34l0.281,0.14
		l-0.222,0.222c-0.206,0.205-0.494,0.49-0.867,0.856c-0.374,0.367-0.765,0.753-1.16,1.149l-0.788,0.787l-0.352,0.353L23.373,9.828z"
		/>
	<rect x="40.362" y="4.427" fill="#F05133" width="1.477" height="9.389"/>
	<path fill="#F05133" d="M51.204,11.914l-1.044-1.061l-0.541,0.523c-0.292,0.308-0.643,0.547-1.038,0.705
		c-0.391,0.156-0.802,0.235-1.224,0.235c-0.876,0-1.638-0.317-2.264-0.943c-0.312-0.312-0.551-0.67-0.708-1.062
		c-0.156-0.389-0.235-0.793-0.235-1.201c0-0.408,0.079-0.812,0.235-1.202c0.157-0.394,0.397-0.745,0.712-1.044
		c0.31-0.309,0.667-0.547,1.058-0.704c0.392-0.156,0.795-0.235,1.202-0.235c0.407,0,0.811,0.079,1.202,0.235
		c0.392,0.157,0.749,0.395,1.062,0.707l0.538,0.521l1.044-1.062l-0.521-0.521C50.226,5.349,49.702,5,49.127,4.772
		c-0.578-0.229-1.172-0.346-1.769-0.346c-0.596,0-1.192,0.116-1.768,0.346C45.015,5,44.491,5.349,44.033,5.807
		c-0.458,0.458-0.802,0.978-1.023,1.544c-0.222,0.57-0.336,1.166-0.336,1.77c0,0.605,0.114,1.201,0.336,1.77
		c0.221,0.567,0.564,1.086,1.023,1.545c0.458,0.458,0.981,0.806,1.556,1.035c0.577,0.229,1.171,0.345,1.769,0.345
		s1.192-0.117,1.769-0.345c0.576-0.229,1.099-0.578,1.557-1.035L51.204,11.914z"/>
	<g>
		<path fill="#F05133" d="M63.599,11.21c0.323-0.76,0.488-1.579,0.488-2.431c0-0.872-0.164-1.694-0.488-2.445
			c-0.324-0.75-0.78-1.418-1.356-1.985c-0.576-0.566-1.25-1.019-2.001-1.344c-0.751-0.324-1.574-0.488-2.445-0.488
			c-0.853,0-1.67,0.165-2.431,0.489c-0.761,0.325-1.433,0.776-2,1.342c-0.567,0.566-1.018,1.235-1.342,1.986
			c-0.324,0.75-0.489,1.572-0.489,2.445c0,0.854,0.165,1.671,0.489,2.431c0.325,0.761,0.776,1.44,1.343,2.016
			c0.566,0.575,1.238,1.031,1.999,1.355c0.76,0.325,1.578,0.489,2.431,0.489c0.873,0,1.695-0.164,2.445-0.488
			c0.751-0.325,1.425-0.781,2.001-1.357C62.817,12.648,63.274,11.971,63.599,11.21z M61.64,10.401
			c-0.213,0.507-0.512,0.956-0.888,1.332c-0.376,0.376-0.825,0.676-1.333,0.89c-0.508,0.213-1.055,0.321-1.623,0.321
			s-1.114-0.107-1.623-0.321c-0.508-0.214-0.956-0.513-1.332-0.89c-0.376-0.375-0.675-0.823-0.888-1.332
			c-0.215-0.508-0.322-1.054-0.322-1.622c0-0.569,0.108-1.11,0.322-1.609c0.213-0.498,0.512-0.941,0.888-1.317
			c0.376-0.376,0.825-0.675,1.333-0.888c0.508-0.214,1.054-0.322,1.622-0.322s1.114,0.108,1.622,0.322
			c0.508,0.213,0.956,0.512,1.333,0.888c0.375,0.377,0.674,0.82,0.887,1.317c0.214,0.499,0.323,1.041,0.323,1.609
			C61.961,9.348,61.853,9.894,61.64,10.401z"/>
		<circle fill="#49A942" cx="57.811" cy="8.793" r="2.744"/>
	</g>
	<polygon fill="#F05133" points="37.273,13.942 39.713,13.942 35.53,8.836 35.415,8.697 35.527,8.554 39.346,3.695 37.075,3.695 
		34.625,6.874 34.437,7.119 34.261,6.864 32.07,3.695 29.764,3.695 33.281,8.561 33.378,8.696 33.278,8.829 29.444,13.942 
		31.833,13.942 34.232,10.551 34.407,10.304 34.594,10.542 	"/>
	<g>
		<polygon fill="#49A942" points="29.176,3.696 30.229,3.694 33.788,8.656 29.851,13.942 28.772,13.942 32.799,8.628 		"/>
	</g>
	<g>
		<polygon fill="#49A942" points="31.049,3.696 32.102,3.694 35.527,8.699 31.833,13.942 30.753,13.942 34.444,8.628 		"/>
	</g>
	<polygon fill="#F05133" points="24.2,4.091 25.288,4.091 27.154,2.729 25.677,1.488 	"/>
</g>
<g>
</g>
<g>
</g>
<g>
</g>
<g>
</g>
<g>
</g>
<g>
</g>
<g>
</g>
<g>
</g>
<g>
</g>
<g>
</g>
<g>
</g>
<g>
</g>
<g>
</g>
<g>
</g>
<g>
</g>
</svg>
