<?xml version="1.0" encoding="utf-8"?>
<!-- Generator: Adobe Illustrator 16.0.0, SVG Export Plug-In . SVG Version: 6.00 Build 0)  -->
<!DOCTYPE svg PUBLIC "-//W3C//DTD SVG 1.1//EN" "http://www.w3.org/Graphics/SVG/1.1/DTD/svg11.dtd">
<svg version="1.1" id="Layer_1" xmlns="http://www.w3.org/2000/svg" xmlns:xlink="http://www.w3.org/1999/xlink" x="0px" y="0px"
	 width="65.639px" height="25.352px" viewBox="0 0 65.639 25.352" enable-background="new 0 0 65.639 25.352" xml:space="preserve">
<g>
	<g>
		<polygon fill="#FFFFFF" points="6.25,18.311 4.715,21.985 3.284,18.311 2.105,18.311 4.554,23.865 4.873,23.865 7.383,18.311 		
			"/>
		<path fill="#FFFFFF" d="M10.208,18.205c-0.734,0-1.373,0.269-1.898,0.798s-0.792,1.233-0.792,2.092
			c0,0.873,0.242,1.559,0.718,2.041c0.477,0.482,1.135,0.727,1.961,0.727c0.84,0,1.487-0.161,1.929-0.481l-0.396-0.785
			c-0.328,0.265-0.777,0.399-1.336,0.399c-0.51,0-0.924-0.138-1.23-0.407c-0.309-0.272-0.479-0.657-0.505-1.143L8.65,21.32h4.069
			c0.058-0.271,0.087-0.479,0.087-0.616c0-0.725-0.238-1.328-0.708-1.794C11.628,18.441,10.99,18.205,10.208,18.205z M8.675,20.563
			l0.031-0.146c0.196-0.892,0.708-1.343,1.522-1.343c0.878,0,1.395,0.468,1.492,1.354l0.015,0.134L8.675,20.563L8.675,20.563z"/>
		<path fill="#FFFFFF" d="M15.898,19.073c0.454,0,0.79,0.127,0.999,0.378c0.202,0.244,0.305,0.627,0.305,1.14v3.167h1.08V20.39
			c0-0.688-0.185-1.231-0.55-1.613c-0.364-0.379-0.871-0.57-1.506-0.57c-0.66,0-1.164,0.2-1.498,0.595l-0.122,0.145l-0.29-0.633
			h-0.753v5.446h1.08v-4.03l0.024-0.033c0.134-0.177,0.321-0.326,0.557-0.443C15.46,19.132,15.687,19.073,15.898,19.073z"/>
		<path fill="#FFFFFF" d="M24.129,23.763v-5.452h-1.08l-0.01,3.834c-0.094,0.229-0.282,0.431-0.561,0.6
			c-0.274,0.167-0.576,0.251-0.896,0.251c-0.5,0-1.098-0.211-1.098-1.216v-3.469h-1.08v3.571c0,1.333,0.605,1.982,1.851,1.982
			c0.26,0,0.55-0.056,0.863-0.164c0.312-0.108,0.559-0.238,0.732-0.387l0.198-0.169v0.618H24.129z"/>
		<path fill="#FFFFFF" d="M27.573,18.205c-0.733,0-1.373,0.269-1.896,0.798c-0.525,0.529-0.792,1.233-0.792,2.092
			c0,0.873,0.242,1.559,0.717,2.041c0.476,0.482,1.136,0.727,1.961,0.727c0.84,0,1.487-0.161,1.928-0.481l-0.396-0.785
			c-0.329,0.265-0.777,0.399-1.336,0.399c-0.511,0-0.924-0.138-1.231-0.407c-0.309-0.272-0.479-0.657-0.505-1.143l-0.007-0.127h4.07
			c0.058-0.271,0.087-0.479,0.087-0.616c0-0.725-0.238-1.328-0.709-1.794C28.991,18.442,28.357,18.205,27.573,18.205z
			 M26.039,20.563l0.033-0.146c0.195-0.892,0.708-1.343,1.521-1.343c0.879,0,1.395,0.468,1.492,1.354l0.015,0.134L26.039,20.563
			L26.039,20.563z"/>
		<path fill="#FFFFFF" d="M36.607,16.925l0.303-0.781c-0.384-0.108-0.716-0.165-0.986-0.165c-0.575,0-1.03,0.197-1.393,0.604
			c-0.36,0.404-0.557,0.947-0.583,1.612l-0.005,0.115h-0.824v0.854h0.824v4.593h1.08v-4.593h1.151V18.31h-1.163l-0.009-0.111
			c-0.005-0.049-0.006-0.099-0.006-0.147c0-0.342,0.098-0.635,0.288-0.873c0.198-0.245,0.443-0.369,0.73-0.369
			C36.16,16.811,36.356,16.848,36.607,16.925z"/>
		<g>
			<path fill="#FFFFFF" d="M37.561,17.215c0.127,0.129,0.276,0.191,0.456,0.191s0.329-0.062,0.457-0.191
				c0.127-0.127,0.188-0.278,0.188-0.458c0-0.181-0.062-0.331-0.188-0.459c-0.128-0.127-0.277-0.19-0.457-0.19
				c-0.179,0-0.328,0.062-0.456,0.19c-0.127,0.128-0.189,0.278-0.189,0.459C37.37,16.937,37.434,17.087,37.561,17.215z"/>
			<polygon fill="#FFFFFF" points="38.552,23.757 38.552,18.311 36.733,18.311 36.733,19.158 37.455,19.158 37.455,23.757 			"/>
		</g>
		<path fill="#FFFFFF" d="M42.122,19.073c0.454,0,0.79,0.127,0.998,0.378c0.202,0.244,0.306,0.627,0.306,1.14v3.167h1.08V20.39
			c0-0.688-0.186-1.231-0.55-1.613c-0.363-0.379-0.87-0.57-1.506-0.57c-0.661,0-1.164,0.2-1.498,0.595l-0.122,0.145l-0.29-0.633
			h-0.753v5.446h1.079v-4.03l0.025-0.033c0.134-0.177,0.321-0.326,0.557-0.443C41.684,19.132,41.91,19.073,42.122,19.073z"/>
		<path fill="#FFFFFF" d="M50.349,23.757v-7.853l-1.08,0.262v2.378l-0.174-0.087c-0.333-0.168-0.709-0.253-1.118-0.253
			c-0.743,0-1.37,0.271-1.862,0.808c-0.496,0.54-0.747,1.25-0.747,2.114s0.218,1.544,0.647,2.021
			c0.427,0.475,1.022,0.715,1.771,0.715c0.265,0,0.522-0.043,0.77-0.129c0.24-0.083,0.41-0.178,0.504-0.281l0.209-0.231v0.536
			H50.349z M49.245,22.59c-0.07,0.097-0.206,0.186-0.414,0.271c-0.201,0.083-0.368,0.124-0.513,0.124
			c-1.208,0-1.821-0.638-1.821-1.896c0-0.633,0.155-1.129,0.458-1.474c0.308-0.351,0.748-0.527,1.31-0.527
			c0.333,0,0.655,0.123,0.957,0.366l0.045,0.036v3.066L49.245,22.59z"/>
		<path fill="#FFFFFF" d="M53.688,18.205c-0.734,0-1.373,0.269-1.897,0.798s-0.792,1.233-0.792,2.092
			c0,0.873,0.241,1.559,0.718,2.041c0.476,0.482,1.136,0.727,1.961,0.727c0.84,0,1.487-0.161,1.928-0.481l-0.396-0.785
			c-0.328,0.265-0.777,0.399-1.338,0.399c-0.509,0-0.924-0.138-1.229-0.407c-0.309-0.272-0.479-0.657-0.505-1.143l-0.006-0.127
			h4.068c0.059-0.271,0.088-0.479,0.088-0.616c0-0.725-0.237-1.328-0.708-1.794C55.108,18.441,54.471,18.205,53.688,18.205z
			 M52.155,20.563l0.032-0.146c0.196-0.892,0.708-1.343,1.522-1.343c0.878,0,1.395,0.468,1.491,1.354l0.016,0.134L52.155,20.563
			L52.155,20.563z"/>
		<path fill="#FFFFFF" d="M59.413,19.073c0.26,0,0.502,0.062,0.727,0.184l0.449-0.912c-0.214-0.093-0.509-0.14-0.874-0.14
			c-0.582,0-1.034,0.19-1.385,0.586l-0.21,0.236v-0.717h-1.08v5.446h1.08v-3.119c0-0.431,0.131-0.802,0.387-1.104
			C58.768,19.229,59.073,19.073,59.413,19.073z"/>
		<path fill="#FFFFFF" d="M64.482,22.285c0-0.367-0.101-0.684-0.301-0.939c-0.204-0.262-0.547-0.49-1.021-0.677
			c-0.512-0.203-0.838-0.362-1-0.486c-0.182-0.14-0.273-0.305-0.273-0.489c0-0.307,0.142-0.673,0.812-0.673
			c0.466,0,0.853,0.101,1.147,0.297l0.287-0.774c-0.473-0.225-0.979-0.337-1.509-0.337c-0.552,0-1.009,0.131-1.359,0.388
			c-0.343,0.252-0.51,0.597-0.51,1.053c0,0.686,0.455,1.208,1.389,1.599c0.464,0.194,0.77,0.36,0.936,0.51
			c0.183,0.161,0.274,0.37,0.274,0.622c0,0.307-0.155,0.673-0.892,0.673c-0.471,0-0.903-0.137-1.287-0.406l-0.362,0.816
			c0.301,0.157,0.553,0.263,0.749,0.316c0.216,0.06,0.511,0.089,0.875,0.089c0.638,0,1.148-0.146,1.513-0.43
			C64.307,23.154,64.482,22.777,64.482,22.285z"/>
	</g>
	<path fill="#FFFFFF" d="M18.687,4.19c-0.451-0.517-0.978-0.928-1.566-1.225c-0.586-0.294-1.229-0.444-1.908-0.444
		c-0.798,0-1.545,0.209-2.227,0.623c-0.683,0.415-1.258,0.986-1.707,1.696L11.114,5.1l-0.166-0.26
		c-0.451-0.712-1.021-1.282-1.696-1.697C8.577,2.73,7.825,2.521,7.014,2.521c-0.666,0-1.305,0.15-1.898,0.445
		C4.521,3.262,3.993,3.673,3.552,4.188C3.108,4.705,2.754,5.315,2.5,6.002C2.244,6.687,2.115,7.439,2.115,8.236v5.741h1.622V8.236
		c0-0.521,0.085-1.019,0.254-1.478C4.16,6.3,4.397,5.893,4.695,5.547C4.991,5.2,5.343,4.924,5.737,4.728
		C6.133,4.53,6.563,4.429,7.014,4.429S7.899,4.53,8.302,4.727c0.401,0.196,0.757,0.473,1.055,0.82
		c0.297,0.346,0.533,0.754,0.701,1.211c0.169,0.459,0.254,0.956,0.254,1.478v5.741h1.622V8.236c0-0.521,0.085-1.02,0.254-1.478
		c0.168-0.458,0.404-0.865,0.701-1.211c0.298-0.347,0.647-0.623,1.042-0.819c0.396-0.198,0.826-0.299,1.278-0.299
		c0.45,0,0.884,0.101,1.287,0.298c0.402,0.196,0.758,0.473,1.056,0.82c0.297,0.346,0.533,0.753,0.701,1.211
		c0.169,0.459,0.254,0.956,0.254,1.478v5.741h1.622V8.236c0-0.796-0.128-1.548-0.384-2.233C19.49,5.316,19.137,4.707,18.687,4.19z"
		/>
	<path fill="#FFFFFF" d="M29.504,11.959l-1.062-1.062l-0.52,0.521c-0.5,0.5-1.093,0.806-1.759,0.908
		c-0.169,0.024-0.339,0.039-0.503,0.039c-0.482,0-0.952-0.112-1.396-0.333l-0.28-0.141l0.221-0.222l5.298-5.297l-0.52-0.521
		c-0.458-0.458-0.981-0.806-1.557-1.035c-0.577-0.229-1.172-0.346-1.77-0.346c-0.596,0-1.19,0.116-1.769,0.346
		c-0.575,0.229-1.098,0.577-1.557,1.035c-0.458,0.458-0.803,0.979-1.022,1.544c-0.223,0.57-0.335,1.163-0.335,1.76
		c0,0.598,0.113,1.192,0.335,1.771c0.221,0.573,0.565,1.096,1.022,1.554c0.443,0.444,0.957,0.789,1.526,1.025
		c0.568,0.236,1.173,0.354,1.798,0.354s1.23-0.118,1.798-0.354c0.569-0.236,1.083-0.581,1.527-1.025L29.504,11.959z M23.925,9.828
		l-0.779,0.778l-0.222,0.223l-0.141-0.281c-0.22-0.438-0.331-0.908-0.331-1.395c0-0.876,0.317-1.638,0.942-2.264
		c0.501-0.501,1.093-0.803,1.761-0.896c0.159-0.022,0.317-0.034,0.473-0.034c0.492,0,0.972,0.114,1.424,0.34l0.281,0.14
		l-0.223,0.223c-0.206,0.205-0.494,0.489-0.867,0.855c-0.374,0.367-0.765,0.753-1.159,1.149l-0.788,0.787l-0.353,0.353L23.925,9.828
		z"/>
	<rect x="40.913" y="4.427" fill="#FFFFFF" width="1.478" height="9.389"/>
	<path fill="#FFFFFF" d="M51.756,11.914l-1.044-1.062l-0.541,0.523c-0.292,0.308-0.644,0.547-1.038,0.705
		c-0.392,0.155-0.803,0.234-1.225,0.234c-0.876,0-1.638-0.316-2.264-0.942c-0.312-0.312-0.551-0.67-0.708-1.062
		c-0.156-0.389-0.235-0.793-0.235-1.201c0-0.407,0.079-0.812,0.235-1.201c0.157-0.395,0.397-0.745,0.712-1.044
		c0.311-0.31,0.667-0.548,1.058-0.704c0.393-0.156,0.796-0.235,1.202-0.235c0.407,0,0.812,0.079,1.202,0.235
		c0.393,0.156,0.749,0.395,1.062,0.707l0.538,0.521l1.044-1.062l-0.521-0.521C50.778,5.349,50.254,5,49.679,4.772
		c-0.578-0.229-1.172-0.346-1.77-0.346c-0.596,0-1.191,0.116-1.768,0.346C45.567,5,45.043,5.349,44.585,5.807
		s-0.803,0.979-1.023,1.544c-0.222,0.57-0.336,1.166-0.336,1.771s0.114,1.2,0.336,1.77c0.221,0.567,0.564,1.086,1.023,1.545
		c0.458,0.458,0.98,0.807,1.556,1.035c0.577,0.229,1.171,0.345,1.769,0.345c0.599,0,1.192-0.116,1.77-0.345
		c0.576-0.229,1.099-0.578,1.557-1.035L51.756,11.914z"/>
	<g>
		<path fill="#FFFFFF" d="M64.151,11.21c0.323-0.76,0.488-1.579,0.488-2.432c0-0.871-0.164-1.693-0.488-2.444
			c-0.324-0.75-0.78-1.418-1.355-1.985c-0.576-0.565-1.25-1.019-2.001-1.344c-0.751-0.324-1.574-0.488-2.445-0.488
			c-0.854,0-1.67,0.165-2.431,0.489c-0.762,0.325-1.434,0.776-2,1.342c-0.567,0.566-1.019,1.235-1.343,1.986
			c-0.323,0.75-0.488,1.572-0.488,2.444c0,0.854,0.165,1.672,0.488,2.432c0.325,0.761,0.776,1.439,1.344,2.016
			c0.565,0.575,1.237,1.031,1.999,1.355c0.76,0.325,1.577,0.488,2.431,0.488c0.873,0,1.695-0.163,2.445-0.487
			c0.751-0.325,1.425-0.781,2.001-1.357C63.368,12.648,63.825,11.971,64.151,11.21z M62.192,10.401
			c-0.213,0.508-0.512,0.956-0.888,1.332s-0.825,0.677-1.333,0.891c-0.508,0.213-1.056,0.32-1.623,0.32
			c-0.568,0-1.114-0.106-1.623-0.32c-0.508-0.214-0.956-0.514-1.332-0.891c-0.376-0.375-0.675-0.822-0.888-1.332
			c-0.216-0.508-0.322-1.054-0.322-1.622s0.107-1.109,0.322-1.608c0.213-0.498,0.512-0.941,0.888-1.317s0.825-0.675,1.333-0.888
			c0.508-0.214,1.054-0.322,1.622-0.322c0.567,0,1.114,0.108,1.622,0.322c0.508,0.213,0.956,0.512,1.333,0.888
			c0.375,0.377,0.674,0.82,0.887,1.317c0.214,0.499,0.323,1.041,0.323,1.608C62.513,9.348,62.405,9.894,62.192,10.401z"/>
		<circle fill="#FFFFFF" cx="58.363" cy="8.793" r="2.744"/>
	</g>
	<polygon fill="#FFFFFF" points="37.824,13.942 40.265,13.942 36.081,8.836 35.967,8.697 36.078,8.554 39.898,3.695 37.627,3.695 
		35.177,6.874 34.989,7.119 34.813,6.865 32.621,3.695 30.316,3.695 33.833,8.561 33.93,8.696 33.829,8.829 29.995,13.942 
		32.385,13.942 34.783,10.551 34.959,10.304 35.146,10.542 	"/>
	<g>
		<polygon fill="#FFFFFF" points="29.728,3.696 30.781,3.694 34.34,8.656 30.403,13.942 29.323,13.942 33.351,8.628 		"/>
	</g>
	<g>
		<polygon fill="#FFFFFF" points="31.601,3.696 32.654,3.694 36.078,8.699 32.385,13.942 31.305,13.942 34.995,8.628 		"/>
	</g>
	<polygon fill="#FFFFFF" points="24.752,4.091 25.84,4.091 27.705,2.729 26.229,1.488 	"/>
</g>
</svg>
