<?xml version="1.0" encoding="utf-8"?>
<!-- Generator: Adobe Illustrator 16.0.0, SVG Export Plug-In . SVG Version: 6.00 Build 0)  -->
<!DOCTYPE svg PUBLIC "-//W3C//DTD SVG 1.1//EN" "http://www.w3.org/Graphics/SVG/1.1/DTD/svg11.dtd">
<svg version="1.1" id="Capa_1" xmlns="http://www.w3.org/2000/svg" xmlns:xlink="http://www.w3.org/1999/xlink" x="0px" y="0px"
	 width="8.75px" height="8.833px" viewBox="0 0 8.75 8.833" enable-background="new 0 0 8.75 8.833" xml:space="preserve">
<path fill="#FFDD50" d="M1.975,5.417c0.2,0.5-0.8,1.601-0.5,1.899c0.4,0.4,1.5-0.699,1.9-0.5c0.5,0.201,0.5,1.701,1,1.701
	s0.6-1.5,1-1.701c0.5-0.199,1.6,0.801,1.9,0.5c0.397-0.399-0.7-1.5-0.5-1.899c0.199-0.5,1.699-0.5,1.699-1s-1.5-0.601-1.699-1
	c-0.198-0.5,0.802-1.601,0.5-1.899c-0.4-0.4-1.5,0.699-1.9,0.5c-0.5-0.201-0.5-1.701-1-1.701s-0.6,1.5-1,1.701
	c-0.5,0.199-1.6-0.801-1.9-0.5c-0.399,0.399,0.7,1.5,0.5,1.899c-0.199,0.5-1.699,0.5-1.699,1S1.775,4.917,1.975,5.417z"/>
</svg>
